<?xml version="1.0" encoding="utf-8"?>
<svg xmlns="http://www.w3.org/2000/svg" height="512pt" version="1.1" viewBox="0 0 512 512" width="512pt">
<path d="M 0.00 0.00 L 512.00 0.00 L 512.00 512.00 L 0.00 512.00 L 0.00 0.00 Z" fill="transparent" opacity="1.00" stroke="transparent" stroke-width="0.25"/>
<path d="M 244.26 157.70 C 247.38 151.81 256.34 148.96 262.68 152.39 C 265.73 153.27 261.28 155.54 260.69 157.10 C 257.30 161.35 267.60 158.15 270.03 159.03 C 270.54 159.28 271.57 159.78 272.09 160.03 C 266.29 160.90 261.37 164.14 255.97 166.12 C 256.48 164.37 257.19 162.69 257.74 160.95 C 254.15 159.91 249.92 161.93 246.99 159.04 C 247.92 157.56 249.03 156.21 249.98 154.74 C 247.67 155.34 246.29 157.35 244.97 159.16 C 244.79 158.80 244.43 158.07 244.26 157.70 Z" fill="#2154a1" opacity="1.00" stroke="#2154a1" stroke-width="0.25"/>
<path d="M 244.97 159.16 C 246.29 157.35 247.67 155.34 249.98 154.74 C 249.03 156.21 247.92 157.56 246.99 159.04 C 246.07 161.75 246.54 164.80 245.24 167.40 C 245.11 164.66 245.02 161.91 244.97 159.16 Z" fill="#86aae9" opacity="1.00" stroke="#86aae9" stroke-width="0.25"/>
<path d="M 270.03 159.03 C 267.60 158.15 257.30 161.35 260.69 157.10 C 262.84 158.81 268.75 156.55 270.03 159.03 Z" fill="#84aadd" opacity="1.00" stroke="#84aadd" stroke-width="0.25"/>
<path d="M 242.33 159.65 C 242.56 158.71 243.20 158.06 244.26 157.70 C 244.43 158.07 244.79 158.80 244.97 159.16 C 245.02 161.91 245.11 164.66 245.24 167.40 C 246.54 164.80 246.07 161.75 246.99 159.04 C 249.92 161.93 254.15 159.91 257.74 160.95 C 257.19 162.69 256.48 164.37 255.97 166.12 C 261.37 164.14 266.29 160.90 272.09 160.03 C 273.73 160.28 278.08 158.75 276.81 161.74 C 272.17 163.32 268.03 165.96 263.73 168.25 C 263.25 168.48 262.28 168.93 261.79 169.15 C 258.63 171.89 264.67 171.15 267.18 171.22 C 259.72 176.87 248.34 177.02 240.87 171.57 C 241.28 170.51 241.48 169.40 241.53 168.26 C 241.80 165.38 242.15 162.53 242.33 159.65 Z" fill="#1a3a86" opacity="1.00" stroke="#1a3a86" stroke-width="0.25"/>
<path d="M 241.53 168.26 C 238.28 167.89 239.07 160.33 242.33 159.65 C 242.15 162.53 241.80 165.38 241.53 168.26 Z" fill="#8b9cbb" opacity="1.00" stroke="#8b9cbb" stroke-width="0.25"/>
<path d="M 261.79 169.15 C 262.28 168.93 263.25 168.48 263.73 168.25 C 265.35 169.12 268.90 168.20 269.06 170.43 C 266.63 169.97 264.21 169.54 261.79 169.15 Z" fill="#a7c0eb" opacity="1.00" stroke="#a7c0eb" stroke-width="0.25"/>
<path d="M 267.18 171.22 C 264.67 171.15 258.63 171.89 261.79 169.15 C 264.21 169.54 266.63 169.97 269.06 170.43 C 270.51 171.03 272.08 171.20 273.65 171.14 C 275.18 171.73 276.70 172.33 278.22 172.95 C 276.70 176.57 271.47 179.76 273.81 184.08 C 258.82 182.06 243.47 181.95 229.06 187.08 C 234.14 184.83 235.34 178.92 231.75 174.71 C 233.86 173.42 236.00 172.17 238.23 171.08 C 238.89 171.20 240.21 171.45 240.87 171.57 C 248.34 177.02 259.72 176.87 267.18 171.22 Z" fill="#375eac" opacity="1.00" stroke="#375eac" stroke-width="0.25"/>
<path d="M 269.06 170.43 C 270.14 169.32 273.79 169.05 273.65 171.14 C 272.08 171.20 270.51 171.03 269.06 170.43 Z" fill="#9bb1e2" opacity="1.00" stroke="#9bb1e2" stroke-width="0.25"/>
<path d="M 206.87 186.90 C 215.35 179.56 226.71 172.61 238.23 171.08 C 236.00 172.17 233.86 173.42 231.75 174.71 C 225.09 177.66 218.70 181.30 213.02 185.87 C 211.37 186.91 209.73 187.95 208.19 189.12 C 207.86 188.56 207.20 187.45 206.87 186.90 Z" fill="#aadbf3" opacity="1.00" stroke="#aadbf3" stroke-width="0.25"/>
<path d="M 273.65 171.14 C 280.15 170.91 286.22 175.17 292.06 176.94 C 292.67 178.01 293.27 179.08 293.88 180.16 C 291.29 179.03 288.69 177.94 286.10 176.83 C 283.51 175.47 280.98 173.97 278.22 172.95 C 276.70 172.33 275.18 171.73 273.65 171.14 Z" fill="#95c3f0" opacity="1.00" stroke="#95c3f0" stroke-width="0.25"/>
<path d="M 278.22 172.95 C 280.98 173.97 283.51 175.47 286.10 176.83 C 284.82 184.18 294.65 185.89 298.95 190.02 C 309.62 196.43 317.24 206.55 326.16 214.97 C 329.51 221.06 330.78 227.99 332.35 234.70 C 332.20 236.25 332.06 237.81 331.91 239.36 C 329.23 237.95 330.30 234.39 329.01 232.03 C 327.22 229.90 327.50 222.66 324.62 224.02 C 323.48 220.17 321.01 217.08 317.14 215.74 C 307.53 199.60 291.82 188.89 273.81 184.08 C 271.47 179.76 276.70 176.57 278.22 172.95 Z" fill="#2874d0" opacity="1.00" stroke="#2874d0" stroke-width="0.25"/>
<path d="M 213.02 185.87 C 218.70 181.30 225.09 177.66 231.75 174.71 C 235.34 178.92 234.14 184.83 229.06 187.08 C 226.06 188.74 222.95 190.17 219.94 191.79 C 207.85 195.99 197.49 207.53 193.89 219.98 C 192.67 222.74 191.58 225.55 190.16 228.22 C 188.90 221.44 194.62 216.24 194.91 209.82 C 199.93 201.09 208.40 194.85 213.02 185.87 Z" fill="#2a63c0" opacity="1.00" stroke="#2a63c0" stroke-width="0.25"/>
<path d="M 286.10 176.83 C 288.69 177.94 291.29 179.03 293.88 180.16 C 307.70 188.23 319.82 200.06 326.16 214.97 C 317.24 206.55 309.62 196.43 298.95 190.02 C 294.65 185.89 284.82 184.18 286.10 176.83 Z" fill="#348fe4" opacity="1.00" stroke="#348fe4" stroke-width="0.25"/>
<path d="M 292.06 176.94 C 296.21 178.79 301.31 179.90 304.02 183.90 C 314.08 191.97 322.91 201.61 328.80 213.25 C 334.65 224.74 335.31 237.64 335.36 250.30 C 334.37 257.10 332.55 263.81 329.80 270.11 C 329.10 269.36 328.41 268.61 327.73 267.85 C 329.69 262.45 331.64 256.97 332.32 251.24 C 333.08 245.77 333.43 240.15 332.35 234.70 C 330.78 227.99 329.51 221.06 326.16 214.97 C 319.82 200.06 307.70 188.23 293.88 180.16 C 293.27 179.08 292.67 178.01 292.06 176.94 Z" fill="#c3eefc" opacity="1.00" stroke="#c3eefc" stroke-width="0.25"/>
<path d="M 229.06 187.08 C 243.47 181.95 258.82 182.06 273.81 184.08 C 291.82 188.89 307.53 199.60 317.14 215.74 C 318.54 220.18 320.20 224.52 322.02 228.81 C 322.23 238.05 325.95 248.56 319.16 256.18 C 317.37 258.12 315.60 260.07 313.95 262.13 C 317.01 261.71 318.46 258.42 320.17 256.23 C 321.73 254.69 322.94 252.66 325.05 251.81 C 320.06 266.67 312.00 281.86 297.91 289.89 C 262.19 309.43 210.88 293.83 193.16 256.87 C 187.11 245.00 193.04 232.27 193.89 219.98 C 196.97 218.65 196.31 212.71 200.42 213.76 C 194.91 222.31 192.85 232.67 194.73 242.71 C 190.95 249.86 195.31 260.71 202.29 264.71 C 204.64 269.85 210.24 272.05 213.90 276.12 C 234.74 296.18 269.34 301.15 294.96 287.94 C 303.85 283.33 310.88 275.22 314.88 266.16 C 314.78 265.81 314.59 265.12 314.49 264.77 C 314.55 264.31 314.66 263.40 314.72 262.94 C 308.00 265.41 300.80 268.86 293.58 267.07 L 293.58 266.05 C 307.08 265.04 317.99 253.00 317.98 239.68 C 319.48 224.62 311.40 210.11 299.98 200.81 C 290.31 191.74 277.14 187.46 264.24 185.70 C 258.78 184.86 253.23 184.70 247.79 185.66 L 246.95 185.77 C 233.65 187.28 221.39 193.41 210.78 201.34 C 212.01 196.81 216.79 194.85 219.94 191.79 C 222.95 190.17 226.06 188.74 229.06 187.08 Z" fill="#112d76" opacity="1.00" stroke="#112d76" stroke-width="0.25"/>
<path d="M 304.02 183.90 C 315.54 189.10 324.44 200.63 329.63 211.84 C 329.42 212.19 329.01 212.90 328.80 213.25 C 322.91 201.61 314.08 191.97 304.02 183.90 Z" fill="#acd1e1" opacity="1.00" stroke="#acd1e1" stroke-width="0.25"/>
<path d="M 247.79 185.66 C 253.23 184.70 258.78 184.86 264.24 185.70 C 263.38 185.78 261.66 185.95 260.80 186.04 C 256.45 185.97 252.12 185.81 247.79 185.66 Z" fill="#7a89b5" opacity="1.00" stroke="#7a89b5" stroke-width="0.25"/>
<path d="M 208.19 189.12 C 209.73 187.95 211.37 186.91 213.02 185.87 C 208.40 194.85 199.93 201.09 194.91 209.82 C 189.44 217.31 189.78 228.44 181.94 234.09 C 184.12 216.20 195.22 200.97 208.19 189.12 Z" fill="#338ae1" opacity="1.00" stroke="#338ae1" stroke-width="0.25"/>
<path d="M 210.78 201.34 C 221.39 193.41 233.65 187.28 246.95 185.77 C 247.17 186.30 247.60 187.36 247.82 187.89 C 235.67 193.63 221.92 201.02 218.20 214.95 C 218.64 214.98 219.52 215.03 219.96 215.06 C 215.39 218.33 212.26 223.43 210.77 228.80 C 210.40 233.56 211.12 241.40 203.88 237.11 C 201.64 227.94 206.42 216.79 209.32 207.39 C 210.15 206.09 208.45 205.56 207.75 204.77 C 208.78 203.64 209.81 202.51 210.78 201.34 Z" fill="#bccdf6" opacity="1.00" stroke="#bccdf6" stroke-width="0.25"/>
<path d="M 246.95 185.77 L 247.79 185.66 C 252.12 185.81 256.45 185.97 260.80 186.04 C 260.50 190.91 266.89 189.47 269.98 191.14 C 280.24 195.32 291.53 200.84 296.89 211.10 C 297.96 213.11 298.36 215.45 297.04 217.46 C 292.34 213.13 284.67 211.07 279.22 215.25 C 268.86 223.12 271.35 241.49 282.68 247.34 C 283.86 248.02 285.06 248.68 286.28 249.33 C 271.77 253.39 254.86 260.37 240.67 251.36 C 237.85 249.74 234.32 249.52 231.77 247.45 C 232.90 246.43 234.03 245.41 235.04 244.27 C 237.54 241.39 239.23 237.87 240.18 234.19 C 240.86 231.39 241.51 228.45 240.31 225.73 C 238.59 216.57 228.71 209.29 219.96 215.06 C 219.52 215.03 218.64 214.98 218.20 214.95 C 221.92 201.02 235.67 193.63 247.82 187.89 C 247.60 187.36 247.17 186.30 246.95 185.77 Z" fill="#edeefa" opacity="1.00" stroke="#edeefa" stroke-width="0.25"/>
<path d="M 260.80 186.04 C 261.66 185.95 263.38 185.78 264.24 185.70 C 277.14 187.46 290.31 191.74 299.98 200.81 C 301.87 206.32 307.14 210.55 305.87 217.02 C 305.34 226.06 309.77 237.43 303.13 245.13 C 299.97 247.41 299.27 251.37 297.63 254.66 C 291.02 253.89 285.33 257.19 279.89 260.39 C 278.51 260.71 277.17 261.14 275.90 261.75 C 272.28 262.80 269.33 265.46 267.81 268.89 C 267.60 269.43 267.18 270.50 266.97 271.04 C 256.26 266.59 240.50 270.71 231.09 260.92 C 226.91 254.78 217.77 253.39 215.85 245.73 C 220.38 249.19 226.65 250.15 231.77 247.45 C 234.32 249.52 237.85 249.74 240.67 251.36 C 254.86 260.37 271.77 253.39 286.28 249.33 C 293.03 249.77 301.11 245.66 302.23 238.45 C 305.23 230.65 301.32 223.63 297.04 217.46 C 298.36 215.45 297.96 213.11 296.89 211.10 C 291.53 200.84 280.24 195.32 269.98 191.14 C 266.89 189.47 260.50 190.91 260.80 186.04 Z" fill="#c7d3f2" opacity="1.00" stroke="#c7d3f2" stroke-width="0.25"/>
<path d="M 190.57 202.83 C 194.01 196.23 200.42 190.60 206.87 186.90 C 207.20 187.45 207.86 188.56 208.19 189.12 C 195.22 200.97 184.12 216.20 181.94 234.09 L 181.82 234.89 C 180.83 239.90 180.50 245.14 182.03 250.10 L 182.19 250.92 C 182.16 252.96 181.82 255.07 180.02 256.33 C 179.55 254.32 179.01 252.32 178.66 250.29 C 178.82 244.77 179.11 239.27 178.80 233.76 C 178.92 232.61 179.06 231.47 179.21 230.33 C 181.44 220.55 186.75 211.70 190.57 202.83 Z" fill="#caf1f9" opacity="1.00" stroke="#caf1f9" stroke-width="0.25"/>
<path d="M 193.89 219.98 C 197.49 207.53 207.85 195.99 219.94 191.79 C 216.79 194.85 212.01 196.81 210.78 201.34 C 209.81 202.51 208.78 203.64 207.75 204.77 C 205.09 207.58 202.76 210.68 200.42 213.76 C 196.31 212.71 196.97 218.65 193.89 219.98 Z" fill="#153c95" opacity="1.00" stroke="#153c95" stroke-width="0.25"/>
<path d="M 299.98 200.81 C 311.40 210.11 319.48 224.62 317.98 239.68 C 310.81 245.21 308.23 256.52 298.56 259.42 C 294.18 259.22 290.45 261.24 286.84 263.35 C 285.63 262.87 284.42 262.39 283.20 261.95 C 282.18 261.25 281.07 260.73 279.89 260.39 C 285.33 257.19 291.02 253.89 297.63 254.66 C 299.27 251.37 299.97 247.41 303.13 245.13 C 309.77 237.43 305.34 226.06 305.87 217.02 C 307.14 210.55 301.87 206.32 299.98 200.81 Z" fill="#b0c3f1" opacity="1.00" stroke="#b0c3f1" stroke-width="0.25"/>
<path d="M 190.57 202.83 C 186.75 211.70 181.44 220.55 179.21 230.33 C 179.03 229.94 178.65 229.16 178.46 228.78 C 179.92 219.63 184.37 210.07 190.57 202.83 Z" fill="#7fb9d0" opacity="1.00" stroke="#7fb9d0" stroke-width="0.25"/>
<path d="M 200.42 213.76 C 202.76 210.68 205.09 207.58 207.75 204.77 C 208.45 205.56 210.15 206.09 209.32 207.39 C 206.42 216.79 201.64 227.94 203.88 237.11 C 211.12 241.40 210.40 233.56 210.77 228.80 C 210.94 231.90 210.47 235.21 211.60 238.19 C 212.36 240.45 213.88 242.31 215.54 243.97 C 215.62 244.41 215.77 245.29 215.85 245.73 C 217.77 253.39 226.91 254.78 231.09 260.92 C 240.50 270.71 256.26 266.59 266.97 271.04 C 266.98 272.20 266.94 273.37 266.88 274.55 C 249.36 276.38 229.24 275.01 215.76 262.26 C 211.51 257.73 205.77 254.97 199.63 254.28 C 197.58 250.62 196.03 246.69 194.73 242.71 C 192.85 232.67 194.91 222.31 200.42 213.76 Z" fill="#a6baea" opacity="1.00" stroke="#a6baea" stroke-width="0.25"/>
<path d="M 181.94 234.09 C 189.78 228.44 189.44 217.31 194.91 209.82 C 194.62 216.24 188.90 221.44 190.16 228.22 C 190.09 228.61 189.95 229.40 189.88 229.80 C 179.62 244.92 188.32 263.85 197.84 277.05 C 203.00 289.42 217.80 292.04 225.29 301.97 C 221.44 301.11 217.69 299.74 214.26 297.78 C 207.59 291.57 198.92 287.29 194.23 279.00 C 187.47 270.98 184.93 260.75 182.19 250.92 L 182.03 250.10 C 181.92 245.02 181.93 239.96 181.82 234.89 L 181.94 234.09 Z" fill="#1170e4" opacity="1.00" stroke="#1170e4" stroke-width="0.25"/>
<path d="M 328.80 213.25 C 329.01 212.90 329.42 212.19 329.63 211.84 C 333.28 218.93 336.76 226.76 336.91 234.84 L 336.84 235.78 C 336.23 240.60 336.30 245.51 335.36 250.30 C 335.31 237.64 334.65 224.74 328.80 213.25 Z" fill="#78aed8" opacity="1.00" stroke="#78aed8" stroke-width="0.25"/>
<path d="M 219.96 215.06 C 228.71 209.29 238.59 216.57 240.31 225.73 C 240.29 228.55 240.24 231.37 240.18 234.19 C 239.23 237.87 237.54 241.39 235.04 244.27 C 229.66 244.57 243.40 234.15 231.43 238.50 C 224.79 240.70 217.91 234.50 211.60 238.19 C 210.47 235.21 210.94 231.90 210.77 228.80 C 212.26 223.43 215.39 218.33 219.96 215.06 Z" fill="#0c0f30" opacity="1.00" stroke="#0c0f30" stroke-width="0.25"/>
<path d="M 279.22 215.25 C 284.67 211.07 292.34 213.13 297.04 217.46 C 301.32 223.63 305.23 230.65 302.23 238.45 C 301.65 235.10 299.07 234.43 296.53 236.43 C 291.52 239.03 285.62 237.34 280.22 238.21 C 279.06 240.75 278.54 243.68 281.72 244.78 C 282.30 245.18 283.47 245.97 284.05 246.37 C 283.71 246.61 283.02 247.10 282.68 247.34 C 271.35 241.49 268.86 223.12 279.22 215.25 Z" fill="#0c1130" opacity="1.00" stroke="#0c1130" stroke-width="0.25"/>
<path d="M 317.14 215.74 C 321.01 217.08 323.48 220.17 324.62 224.02 C 328.13 229.60 324.53 237.54 328.81 242.37 C 328.91 238.91 329.13 235.49 329.01 232.03 C 330.30 234.39 329.23 237.95 331.91 239.36 C 331.89 240.82 331.84 242.29 331.77 243.75 C 329.45 249.00 329.52 255.32 325.98 260.02 C 325.03 254.95 331.09 249.37 326.94 245.12 C 323.19 240.43 326.48 232.87 322.02 228.81 C 320.20 224.52 318.54 220.18 317.14 215.74 Z" fill="#1256af" opacity="1.00" stroke="#1256af" stroke-width="0.25"/>
<path d="M 219.27 217.25 C 222.80 216.18 217.74 222.23 215.93 223.13 C 216.22 220.82 217.40 218.64 219.27 217.25 Z" fill="#454960" opacity="1.00" stroke="#454960" stroke-width="0.25"/>
<path d="M 226.16 219.28 C 227.96 215.52 234.06 216.81 235.03 220.23 C 234.97 221.40 234.96 222.58 235.02 223.76 C 233.29 228.42 222.63 225.19 226.16 219.28 Z" fill="#ebecee" opacity="1.00" stroke="#ebecee" stroke-width="0.25"/>
<path d="M 278.97 220.24 C 280.08 213.94 291.36 217.63 287.28 223.28 C 285.73 226.23 279.53 227.99 278.97 223.76 C 279.02 222.58 279.02 221.41 278.97 220.24 Z" fill="#ededf0" opacity="1.00" stroke="#ededf0" stroke-width="0.25"/>
<path d="M 190.16 228.22 C 191.58 225.55 192.67 222.74 193.89 219.98 C 193.04 232.27 187.11 245.00 193.16 256.87 C 210.88 293.83 262.19 309.43 297.91 289.89 C 312.00 281.86 320.06 266.67 325.05 251.81 C 322.94 252.66 321.73 254.69 320.17 256.23 L 319.16 256.18 C 325.95 248.56 322.23 238.05 322.02 228.81 C 326.48 232.87 323.19 240.43 326.94 245.12 C 331.09 249.37 325.03 254.95 325.98 260.02 C 319.06 276.39 307.00 291.81 289.64 297.61 C 252.99 309.23 203.34 295.38 190.09 255.93 C 184.87 247.32 189.08 238.66 189.88 229.80 C 189.95 229.40 190.09 228.61 190.16 228.22 Z" fill="#0d3a97" opacity="1.00" stroke="#0d3a97" stroke-width="0.25"/>
<path d="M 235.03 220.23 C 236.85 219.91 236.84 224.09 235.02 223.76 C 234.96 222.58 234.97 221.40 235.03 220.23 Z" fill="#767683" opacity="1.00" stroke="#767683" stroke-width="0.25"/>
<path d="M 278.97 223.76 C 277.14 224.09 277.15 219.90 278.97 220.24 C 279.02 221.41 279.02 222.58 278.97 223.76 Z" fill="#7b7a8a" opacity="1.00" stroke="#7b7a8a" stroke-width="0.25"/>
<path d="M 324.62 224.02 C 327.50 222.66 327.22 229.90 329.01 232.03 C 329.13 235.49 328.91 238.91 328.81 242.37 C 324.53 237.54 328.13 229.60 324.62 224.02 Z" fill="#559bef" opacity="1.00" stroke="#559bef" stroke-width="0.25"/>
<path d="M 240.31 225.73 C 241.51 228.45 240.86 231.39 240.18 234.19 C 240.24 231.37 240.29 228.55 240.31 225.73 Z" fill="#b7b6c4" opacity="1.00" stroke="#b7b6c4" stroke-width="0.25"/>
<path d="M 178.46 228.78 C 178.65 229.16 179.03 229.94 179.21 230.33 C 179.06 231.47 178.92 232.61 178.80 233.76 C 177.88 239.21 177.57 244.83 178.66 250.29 C 179.01 252.32 179.55 254.32 180.02 256.33 C 181.97 266.07 186.31 275.33 192.25 283.28 C 195.61 287.69 199.93 291.22 204.09 294.84 C 203.79 295.10 203.18 295.63 202.87 295.89 C 199.49 293.34 196.14 290.77 193.10 287.82 C 184.53 277.29 178.70 264.52 176.99 251.02 C 176.98 245.99 177.02 240.99 176.98 235.98 C 176.83 233.48 177.69 231.10 178.46 228.78 Z" fill="#427fc9" opacity="1.00" stroke="#427fc9" stroke-width="0.25"/>
<path d="M 276.02 228.76 C 277.79 231.08 278.16 234.25 279.04 237.02 C 274.84 237.80 277.61 230.19 276.02 228.76 Z" fill="#353c68" opacity="1.00" stroke="#353c68" stroke-width="0.25"/>
<path d="M 197.84 277.05 C 188.32 263.85 179.62 244.92 189.88 229.80 C 189.08 238.66 184.87 247.32 190.09 255.93 C 203.34 295.38 252.99 309.23 289.64 297.61 C 307.00 291.81 319.06 276.39 325.98 260.02 C 326.67 269.24 317.04 275.33 317.12 284.28 C 312.48 289.49 307.06 294.19 300.69 297.14 C 293.26 300.70 285.61 304.08 277.34 305.11 C 266.76 303.48 255.99 306.00 245.44 303.46 C 227.52 299.14 210.36 290.85 197.84 277.05 Z" fill="#0f4dba" opacity="1.00" stroke="#0f4dba" stroke-width="0.25"/>
<path d="M 178.66 250.29 C 177.57 244.83 177.88 239.21 178.80 233.76 C 179.11 239.27 178.82 244.77 178.66 250.29 Z" fill="#92c8ec" opacity="1.00" stroke="#92c8ec" stroke-width="0.25"/>
<path d="M 182.03 250.10 C 180.50 245.14 180.83 239.90 181.82 234.89 C 181.93 239.96 181.92 245.02 182.03 250.10 Z" fill="#80c6f4" opacity="1.00" stroke="#80c6f4" stroke-width="0.25"/>
<path d="M 296.53 236.43 C 299.07 234.43 301.65 235.10 302.23 238.45 C 301.11 245.66 293.03 249.77 286.28 249.33 C 285.06 248.68 283.86 248.02 282.68 247.34 C 283.02 247.10 283.71 246.61 284.05 246.37 C 289.71 248.36 298.44 247.20 299.10 239.89 C 297.13 239.78 295.78 241.24 294.35 242.33 C 291.00 245.83 285.49 242.01 281.72 244.78 C 278.54 243.68 279.06 240.75 280.22 238.21 C 285.62 237.34 291.52 239.03 296.53 236.43 Z" fill="#122057" opacity="1.00" stroke="#122057" stroke-width="0.25"/>
<path d="M 332.35 234.70 C 333.43 240.15 333.08 245.77 332.32 251.24 C 332.18 249.37 331.91 245.62 331.77 243.75 C 331.84 242.29 331.89 240.82 331.91 239.36 C 332.06 237.81 332.20 236.25 332.35 234.70 Z" fill="#84b5dc" opacity="1.00" stroke="#84b5dc" stroke-width="0.25"/>
<path d="M 336.91 234.84 C 338.24 237.56 339.49 248.58 337.02 251.02 C 337.01 245.93 336.94 240.86 336.84 235.78 L 336.91 234.84 Z" fill="#9cd6fc" opacity="1.00" stroke="#9cd6fc" stroke-width="0.25"/>
<path d="M 176.99 251.02 C 175.21 248.85 175.23 238.17 176.98 235.98 C 177.02 240.99 176.98 245.99 176.99 251.02 Z" fill="#a0d9fd" opacity="1.00" stroke="#a0d9fd" stroke-width="0.25"/>
<path d="M 335.36 250.30 C 336.30 245.51 336.23 240.60 336.84 235.78 C 336.94 240.86 337.01 245.93 337.02 251.02 C 335.52 264.59 329.52 277.31 320.79 287.75 C 318.20 290.35 315.67 293.03 312.75 295.28 C 311.89 295.80 311.04 296.33 310.19 296.86 C 309.67 296.64 308.63 296.22 308.11 296.01 C 317.44 289.50 325.14 280.52 329.80 270.11 C 332.55 263.81 334.37 257.10 335.36 250.30 Z" fill="#4880ce" opacity="1.00" stroke="#4880ce" stroke-width="0.25"/>
<path d="M 211.60 238.19 C 217.91 234.50 224.79 240.70 231.43 238.50 C 243.40 234.15 229.66 244.57 235.04 244.27 C 234.03 245.41 232.90 246.43 231.77 247.45 C 226.65 250.15 220.38 249.19 215.85 245.73 C 215.77 245.29 215.62 244.41 215.54 243.97 C 220.63 246.40 228.00 249.49 232.23 244.14 C 226.64 245.09 221.55 243.40 216.32 242.12 C 216.12 242.58 215.74 243.51 215.54 243.97 C 213.88 242.31 212.36 240.45 211.60 238.19 Z" fill="#12215a" opacity="1.00" stroke="#12215a" stroke-width="0.25"/>
<path d="M 294.35 242.33 C 295.78 241.24 297.13 239.78 299.10 239.89 C 298.44 247.20 289.71 248.36 284.05 246.37 C 283.47 245.97 282.30 245.18 281.72 244.78 C 285.49 242.01 291.00 245.83 294.35 242.33 Z" fill="#39549e" opacity="1.00" stroke="#39549e" stroke-width="0.25"/>
<path d="M 298.56 259.42 C 308.23 256.52 310.81 245.21 317.98 239.68 C 317.99 253.00 307.08 265.04 293.58 266.05 C 291.01 266.13 288.89 264.70 286.84 263.35 C 290.45 261.24 294.18 259.22 298.56 259.42 Z" fill="#9fb1e3" opacity="1.00" stroke="#9fb1e3" stroke-width="0.25"/>
<path d="M 216.32 242.12 C 221.55 243.40 226.64 245.09 232.23 244.14 C 228.00 249.49 220.63 246.40 215.54 243.97 C 215.74 243.51 216.12 242.58 216.32 242.12 Z" fill="#395498" opacity="1.00" stroke="#395498" stroke-width="0.25"/>
<path d="M 202.29 264.71 C 195.31 260.71 190.95 249.86 194.73 242.71 C 196.03 246.69 197.58 250.62 199.63 254.28 C 204.57 263.02 213.60 268.00 222.11 272.71 C 221.55 272.82 220.44 273.06 219.89 273.18 C 234.62 290.08 258.55 291.39 279.34 290.37 C 289.25 286.66 299.99 281.66 304.88 271.76 C 308.20 269.87 311.69 268.27 314.88 266.16 C 310.88 275.22 303.85 283.33 294.96 287.94 C 269.34 301.15 234.74 296.18 213.90 276.12 C 210.24 272.05 204.64 269.85 202.29 264.71 Z" fill="#0c2463" opacity="1.00" stroke="#0c2463" stroke-width="0.25"/>
<path d="M 325.98 260.02 C 329.52 255.32 329.45 249.00 331.77 243.75 C 331.91 245.62 332.18 249.37 332.32 251.24 C 331.64 256.97 329.69 262.45 327.73 267.85 C 324.44 273.46 321.54 279.43 317.12 284.28 C 317.04 275.33 326.67 269.24 325.98 260.02 Z" fill="#2884d4" opacity="1.00" stroke="#2884d4" stroke-width="0.25"/>
<path d="M 245.97 245.92 C 251.44 251.99 260.70 251.08 267.02 246.90 C 266.61 256.81 245.07 256.33 245.97 245.92 Z" fill="#363c53" opacity="1.00" stroke="#363c53" stroke-width="0.25"/>
<path d="M 182.19 250.92 C 184.93 260.75 187.47 270.98 194.23 279.00 C 193.98 280.60 193.37 282.09 192.25 283.28 C 186.31 275.33 181.97 266.07 180.02 256.33 C 181.82 255.07 182.16 252.96 182.19 250.92 Z" fill="#73d6fd" opacity="1.00" stroke="#73d6fd" stroke-width="0.25"/>
<path d="M 199.63 254.28 C 205.77 254.97 211.51 257.73 215.76 262.26 C 229.24 275.01 249.36 276.38 266.88 274.55 C 266.94 273.37 266.98 272.20 266.97 271.04 C 267.18 270.50 267.60 269.43 267.81 268.89 C 264.63 271.79 272.96 279.35 267.32 279.41 C 260.81 279.02 254.28 278.95 247.77 279.24 C 238.89 278.56 230.31 276.06 222.11 272.71 C 213.60 268.00 204.57 263.02 199.63 254.28 Z" fill="#93a3d7" opacity="1.00" stroke="#93a3d7" stroke-width="0.25"/>
<path d="M 319.16 256.18 L 320.17 256.23 C 318.46 258.42 317.01 261.71 313.95 262.13 C 315.60 260.07 317.37 258.12 319.16 256.18 Z" fill="#6183c8" opacity="1.00" stroke="#6183c8" stroke-width="0.25"/>
<path d="M 275.90 261.75 C 277.17 261.14 278.51 260.71 279.89 260.39 C 281.07 260.73 282.18 261.25 283.20 261.95 C 281.38 261.90 277.73 261.80 275.90 261.75 Z" fill="#576296" opacity="1.00" stroke="#576296" stroke-width="0.25"/>
<path d="M 267.81 268.89 C 269.33 265.46 272.28 262.80 275.90 261.75 C 277.73 261.80 281.38 261.90 283.20 261.95 C 277.13 261.90 268.83 265.44 270.09 272.79 C 275.98 274.62 291.82 276.40 291.54 267.10 C 292.05 267.10 293.07 267.08 293.58 267.07 C 300.80 268.86 308.00 265.41 314.72 262.94 C 314.66 263.40 314.55 264.31 314.49 264.77 C 308.56 268.74 301.62 270.92 295.81 275.05 C 299.09 274.81 301.95 273.08 304.88 271.76 C 299.99 281.66 289.25 286.66 279.34 290.37 C 258.55 291.39 234.62 290.08 219.89 273.18 C 220.44 273.06 221.55 272.82 222.11 272.71 C 230.31 276.06 238.89 278.56 247.77 279.24 C 254.21 279.90 260.91 280.83 267.32 279.41 C 272.96 279.35 264.63 271.79 267.81 268.89 Z" fill="#0b194c" opacity="1.00" stroke="#0b194c" stroke-width="0.25"/>
<path d="M 283.20 261.95 C 284.42 262.39 285.63 262.87 286.84 263.35 C 288.89 264.70 291.01 266.13 293.58 266.05 L 293.58 267.07 C 293.07 267.08 292.05 267.10 291.54 267.10 C 291.82 276.40 275.98 274.62 270.09 272.79 C 268.83 265.44 277.13 261.90 283.20 261.95 Z" fill="#27346b" opacity="1.00" stroke="#27346b" stroke-width="0.25"/>
<path d="M 295.81 275.05 C 301.62 270.92 308.56 268.74 314.49 264.77 C 314.59 265.12 314.78 265.81 314.88 266.16 C 311.69 268.27 308.20 269.87 304.88 271.76 C 301.95 273.08 299.09 274.81 295.81 275.05 Z" fill="#454e7f" opacity="1.00" stroke="#454e7f" stroke-width="0.25"/>
<path d="M 317.12 284.28 C 321.54 279.43 324.44 273.46 327.73 267.85 C 328.41 268.61 329.10 269.36 329.80 270.11 C 325.14 280.52 317.44 289.50 308.11 296.01 C 306.84 296.88 305.56 297.72 304.23 298.48 C 303.04 298.05 301.86 297.60 300.69 297.14 C 307.06 294.19 312.48 289.49 317.12 284.28 Z" fill="#6dc0fd" opacity="1.00" stroke="#6dc0fd" stroke-width="0.25"/>
<path d="M 197.84 277.05 C 210.36 290.85 227.52 299.14 245.44 303.46 C 255.99 306.00 266.76 303.48 277.34 305.11 C 269.56 305.84 261.78 306.78 253.96 307.08 C 244.13 307.71 234.58 304.78 225.29 301.97 C 217.80 292.04 203.00 289.42 197.84 277.05 Z" fill="#1257cf" opacity="1.00" stroke="#1257cf" stroke-width="0.25"/>
<path d="M 194.23 279.00 C 198.92 287.29 207.59 291.57 214.26 297.78 C 212.41 297.45 210.52 297.21 208.68 297.73 C 207.05 296.94 205.54 295.93 204.09 294.84 C 199.93 291.22 195.61 287.69 192.25 283.28 C 193.37 282.09 193.98 280.60 194.23 279.00 Z" fill="#47acfc" opacity="1.00" stroke="#47acfc" stroke-width="0.25"/>
<path d="M 247.77 279.24 C 254.28 278.95 260.81 279.02 267.32 279.41 C 260.91 280.83 254.21 279.90 247.77 279.24 Z" fill="#546496" opacity="1.00" stroke="#546496" stroke-width="0.25"/>
<path d="M 193.10 287.82 C 196.14 290.77 199.49 293.34 202.87 295.89 C 203.77 296.56 204.66 297.24 205.56 297.92 C 204.96 298.21 203.76 298.80 203.17 299.09 C 195.45 300.53 179.33 300.29 179.98 310.84 C 187.74 315.93 197.02 317.81 206.19 317.89 C 238.97 319.95 272.08 322.00 304.77 317.83 C 313.21 318.32 321.95 316.45 329.43 312.48 C 333.39 310.93 334.32 304.70 329.95 303.03 C 325.00 298.79 316.71 300.47 312.75 295.28 C 315.67 293.03 318.20 290.35 320.79 287.75 C 320.84 289.92 319.36 291.69 319.05 293.79 C 326.49 297.42 339.41 296.10 341.94 306.08 C 341.54 312.31 334.83 314.69 329.97 316.95 C 283.05 327.65 234.01 325.65 186.92 317.10 C 181.75 314.98 172.17 313.90 174.11 306.22 C 180.08 299.19 189.73 298.36 197.98 295.75 C 196.40 293.06 194.00 290.87 193.10 287.82 Z" fill="#ecf1fb" opacity="1.00" stroke="#ecf1fb" stroke-width="0.25"/>
<path d="M 202.87 295.89 C 203.18 295.63 203.79 295.10 204.09 294.84 C 205.54 295.93 207.05 296.94 208.68 297.73 C 219.75 303.76 232.49 306.12 244.77 308.28 C 259.31 310.22 274.62 311.94 288.70 306.69 C 290.94 305.21 292.93 307.79 293.14 309.90 C 287.32 313.83 280.12 313.48 273.72 315.79 C 264.91 316.71 256.06 316.18 247.24 315.79 C 237.03 313.87 227.78 309.30 218.48 304.84 C 217.92 304.65 216.81 304.25 216.25 304.06 C 215.74 303.89 214.70 303.57 214.19 303.40 C 212.54 302.35 210.93 301.25 209.28 300.20 C 208.05 299.40 206.82 298.63 205.56 297.92 C 204.66 297.24 203.77 296.56 202.87 295.89 Z" fill="#0c2a7d" opacity="1.00" stroke="#0c2a7d" stroke-width="0.25"/>
<path d="M 310.19 296.86 C 311.04 296.33 311.89 295.80 312.75 295.28 C 316.71 300.47 325.00 298.79 329.95 303.03 C 334.32 304.70 333.39 310.93 329.43 312.48 C 321.95 316.45 313.21 318.32 304.77 317.83 C 311.88 315.00 323.52 316.51 327.02 307.99 C 323.38 301.21 314.24 302.20 308.65 297.98 C 309.04 297.70 309.80 297.14 310.19 296.86 Z" fill="#cfddf5" opacity="1.00" stroke="#cfddf5" stroke-width="0.25"/>
<path d="M 308.11 296.01 C 308.63 296.22 309.67 296.64 310.19 296.86 C 309.80 297.14 309.04 297.70 308.65 297.98 C 307.61 298.64 306.56 299.30 305.53 299.96 C 303.59 300.98 301.70 302.09 299.73 303.07 C 298.38 303.73 295.58 303.44 296.10 305.63 C 298.45 306.51 303.24 306.05 301.96 309.87 C 300.55 312.56 296.26 313.00 293.78 314.84 C 293.15 314.95 291.89 315.18 291.26 315.29 C 285.39 315.11 279.58 316.14 273.72 315.79 C 280.12 313.48 287.32 313.83 293.14 309.90 C 292.93 307.79 290.94 305.21 288.70 306.69 C 274.62 311.94 259.31 310.22 244.77 308.28 C 247.84 308.19 250.95 308.08 254.04 308.02 C 271.03 308.33 289.43 307.93 304.23 298.48 C 305.56 297.72 306.84 296.88 308.11 296.01 Z" fill="#154baf" opacity="1.00" stroke="#154baf" stroke-width="0.25"/>
<path d="M 208.68 297.73 C 210.52 297.21 212.41 297.45 214.26 297.78 C 217.69 299.74 221.44 301.11 225.29 301.97 C 234.58 304.78 244.13 307.71 253.96 307.08 L 254.04 308.02 C 250.95 308.08 247.84 308.19 244.77 308.28 C 232.49 306.12 219.75 303.76 208.68 297.73 Z" fill="#76acf6" opacity="1.00" stroke="#76acf6" stroke-width="0.25"/>
<path d="M 277.34 305.11 C 285.61 304.08 293.26 300.70 300.69 297.14 C 301.86 297.60 303.04 298.05 304.23 298.48 C 289.43 307.93 271.03 308.33 254.04 308.02 L 253.96 307.08 C 261.78 306.78 269.56 305.84 277.34 305.11 Z" fill="#4183ee" opacity="1.00" stroke="#4183ee" stroke-width="0.25"/>
<path d="M 205.56 297.92 C 206.82 298.63 208.05 299.40 209.28 300.20 C 205.08 304.85 191.65 301.79 192.99 310.87 C 221.53 322.44 254.19 318.43 284.29 318.32 C 285.45 318.14 286.61 317.98 287.78 317.82 C 298.75 317.14 312.46 317.97 320.80 309.69 C 321.10 302.40 309.92 303.89 305.53 299.96 C 306.56 299.30 307.61 298.64 308.65 297.98 C 314.24 302.20 323.38 301.21 327.02 307.99 C 323.52 316.51 311.88 315.00 304.77 317.83 C 272.08 322.00 238.97 319.95 206.19 317.89 C 199.87 316.88 193.74 314.78 187.98 312.02 C 185.77 311.11 184.45 308.18 186.21 306.23 C 191.33 302.72 197.59 301.61 203.17 299.09 C 203.76 298.80 204.96 298.21 205.56 297.92 Z" fill="#acc3ed" opacity="1.00" stroke="#acc3ed" stroke-width="0.25"/>
<path d="M 179.98 310.84 C 179.33 300.29 195.45 300.53 203.17 299.09 C 197.59 301.61 191.33 302.72 186.21 306.23 C 184.45 308.18 185.77 311.11 187.98 312.02 C 193.74 314.78 199.87 316.88 206.19 317.89 C 197.02 317.81 187.74 315.93 179.98 310.84 Z" fill="#cfdbf4" opacity="1.00" stroke="#cfdbf4" stroke-width="0.25"/>
<path d="M 209.28 300.20 C 210.93 301.25 212.54 302.35 214.19 303.40 C 209.23 303.03 204.37 304.65 200.18 307.21 C 196.83 309.58 201.83 312.26 203.97 312.98 C 213.20 315.28 222.69 317.44 232.29 316.68 C 246.03 318.49 259.95 318.24 273.78 317.79 C 277.27 317.86 280.80 318.05 284.29 318.32 C 254.19 318.43 221.53 322.44 192.99 310.87 C 191.65 301.79 205.08 304.85 209.28 300.20 Z" fill="#7ea0dd" opacity="1.00" stroke="#7ea0dd" stroke-width="0.25"/>
<path d="M 299.73 303.07 C 301.70 302.09 303.59 300.98 305.53 299.96 C 309.92 303.89 321.10 302.40 320.80 309.69 C 312.46 317.97 298.75 317.14 287.78 317.82 C 295.09 316.57 302.50 315.67 309.66 313.65 C 312.44 312.82 315.77 310.65 314.86 307.27 C 311.62 303.63 305.95 304.14 301.49 303.88 C 301.05 303.68 300.17 303.27 299.73 303.07 Z" fill="#7fa4e4" opacity="1.00" stroke="#7fa4e4" stroke-width="0.25"/>
<path d="M 200.18 307.21 C 204.37 304.65 209.23 303.03 214.19 303.40 C 214.70 303.57 215.74 303.89 216.25 304.06 C 213.38 306.22 205.87 305.74 206.97 310.88 C 214.47 315.79 223.90 314.53 232.29 316.68 C 222.69 317.44 213.20 315.28 203.97 312.98 C 201.83 312.26 196.83 309.58 200.18 307.21 Z" fill="#5485d3" opacity="1.00" stroke="#5485d3" stroke-width="0.25"/>
<path d="M 296.10 305.63 C 295.58 303.44 298.38 303.73 299.73 303.07 C 300.17 303.27 301.05 303.68 301.49 303.88 C 304.22 306.22 310.44 305.91 309.01 310.87 C 304.54 313.94 299.11 314.93 293.78 314.84 C 296.26 313.00 300.55 312.56 301.96 309.87 C 303.24 306.05 298.45 306.51 296.10 305.63 Z" fill="#3069c9" opacity="1.00" stroke="#3069c9" stroke-width="0.25"/>
<path d="M 301.49 303.88 C 305.95 304.14 311.62 303.63 314.86 307.27 C 315.77 310.65 312.44 312.82 309.66 313.65 C 302.50 315.67 295.09 316.57 287.78 317.82 C 286.61 317.98 285.45 318.14 284.29 318.32 C 280.80 318.05 277.27 317.86 273.78 317.79 C 279.63 317.19 285.53 316.76 291.26 315.29 C 291.89 315.18 293.15 314.95 293.78 314.84 C 299.11 314.93 304.54 313.94 309.01 310.87 C 310.44 305.91 304.22 306.22 301.49 303.88 Z" fill="#5886d4" opacity="1.00" stroke="#5886d4" stroke-width="0.25"/>
<path d="M 216.25 304.06 C 216.81 304.25 217.92 304.65 218.48 304.84 C 219.39 307.48 214.15 309.66 217.73 311.25 C 226.83 315.25 237.43 314.82 247.24 315.79 C 256.06 316.18 264.91 316.71 273.72 315.79 C 279.58 316.14 285.39 315.11 291.26 315.29 C 285.53 316.76 279.63 317.19 273.78 317.79 C 259.95 318.24 246.03 318.49 232.29 316.68 C 223.90 314.53 214.47 315.79 206.97 310.88 C 205.87 305.74 213.38 306.22 216.25 304.06 Z" fill="#3062b7" opacity="1.00" stroke="#3062b7" stroke-width="0.25"/>
<path d="M 218.48 304.84 C 227.78 309.30 237.03 313.87 247.24 315.79 C 237.43 314.82 226.83 315.25 217.73 311.25 C 214.15 309.66 219.39 307.48 218.48 304.84 Z" fill="#14449f" opacity="1.00" stroke="#14449f" stroke-width="0.25"/>
</svg>